<svg width="228" height="81" fill="none" xmlns="http://www.w3.org/2000/svg"><g clip-path="url(#a)"><path d="M19.56 29.04v2.32H11.8V57H9V31.36H1.2v-2.32h18.36Zm20.621 21.32h-12.72L25.021 57h-2.96l10.2-27.6h3.16L45.581 57h-2.96l-2.44-6.64Zm-.84-2.32-5.52-15.12-5.52 15.12h11.04Zm20.814-5L68.635 57h-3.12l-7.12-11.68L51.635 57h-3.12l8.44-14.08-8.44-13.88h3.12l7.08 11.64 6.84-11.64h3.12l-8.52 14Zm16.118-14V57h-2.8V29.04h2.8Z" fill="#fff"/><path d="M93.32 34.4v5.68h9.16v5.28h-9.16v6.16h10.36V57h-17.2V28.92h17.2v5.48H93.32Zm22.081 17h12.08V57h-19.84v-5.2l12-17.28h-12v-5.6h19.84v5.2l-12.08 17.28Zm23.388-17v5.68h9.16v5.28h-9.16v6.16h10.36V57h-17.2V28.92h17.2v5.48h-10.36Zm21.64-5.48V57h-6.84V28.92h6.84Zm12.237 22.48h12.08V57h-19.84v-5.2l12-17.28h-12v-5.6h19.84v5.2l-12.08 17.28Zm34.028.64h-10.48l-1.68 4.96h-7.16l10.16-28.08h7.92L215.614 57h-7.24l-1.68-4.96Zm-1.76-5.28-3.48-10.28-3.44 10.28h6.92ZM86 61h9.75v10H86zM95.75 71h9.75v10h-9.75zM105.5 61h9.75v10h-9.75zM115.25 71H125v10h-9.75zM125 61h10v10h-10zM135 71h10v10h-10zM145 61h10v10h-10zM155 71h10v10h-10zM165 61h10v10h-10zM175 71h10v10h-10zM185 61h10v10h-10zM195 71h10v10h-10zM205 61h10v10h-10z" fill="#FFE600"/><path fill="#000" d="M197 28h1v1h-1z"/><mask id="b" style="mask-type:alpha" maskUnits="userSpaceOnUse" x="193" y="0" width="35" height="36"><path fill="#D9D9D9" d="M193 0h35v36h-35z"/></mask><g mask="url(#b)"><path d="M197.458 31.025v-3h26.25v3h-26.25Zm2.698-7.5L196 16.25l2.26-.45 2.552 2.325 7-1.95L201.906 5.9l2.844-.9 9.99 9.225 7.291-2.025c.778-.225 1.483-.075 2.115.45.632.525.948 1.225.948 2.1 0 .55-.164 1.037-.492 1.462a2.418 2.418 0 0 1-1.258.863l-23.188 6.45Z" fill="#FFE600"/></g></g><defs><clipPath id="a"><path fill="#fff" d="M0 0h228v81H0z"/></clipPath></defs></svg>