<svg width="228" height="81" viewBox="0 0 228 81" fill="none" xmlns="http://www.w3.org/2000/svg">
<g clip-path="url(#clip0_1_9)">
<path d="M19.56 29.04V31.36H11.8V57H9V31.36H1.2V29.04H19.56ZM40.1813 50.36H27.4613L25.0213 57H22.0613L32.2613 29.4H35.4213L45.5813 57H42.6213L40.1813 50.36ZM39.3413 48.04L33.8213 32.92L28.3013 48.04H39.3413ZM60.155 43.04L68.635 57H65.515L58.395 45.32L51.635 57H48.515L56.955 42.92L48.515 29.04H51.635L58.715 40.68L65.555 29.04H68.675L60.155 43.04ZM76.2734 29.04V57H73.4734V29.04H76.2734Z" fill="white"/>
<path d="M93.32 34.4V40.08H102.48V45.36H93.32V51.52H103.68V57H86.48V28.92H103.68V34.4H93.32ZM115.401 51.4H127.481V57H107.641V51.8L119.641 34.52H107.641V28.92H127.481V34.12L115.401 51.4ZM138.789 34.4V40.08H147.949V45.36H138.789V51.52H149.149V57H131.949V28.92H149.149V34.4H138.789ZM160.429 28.92V57H153.589V28.92H160.429ZM172.666 51.4H184.746V57H164.906V51.8L176.906 34.52H164.906V28.92H184.746V34.12L172.666 51.4ZM206.694 52.04H196.214L194.534 57H187.374L197.534 28.92H205.454L215.614 57H208.374L206.694 52.04ZM204.934 46.76L201.454 36.48L198.014 46.76H204.934Z" fill="#FFE600"/>
<rect x="86" y="61" width="9.75" height="10" fill="#FFE600"/>
<rect x="95.75" y="71" width="9.75" height="10" fill="#FFE600"/>
<rect x="105.5" y="61" width="9.75" height="10" fill="#FFE600"/>
<rect x="115.25" y="71" width="9.75" height="10" fill="#FFE600"/>
<rect x="125" y="61" width="10" height="10" fill="#FFE600"/>
<rect x="135" y="71" width="10" height="10" fill="#FFE600"/>
<rect x="145" y="61" width="10" height="10" fill="#FFE600"/>
<rect x="155" y="71" width="10" height="10" fill="#FFE600"/>
<rect x="165" y="61" width="10" height="10" fill="#FFE600"/>
<rect x="175" y="71" width="10" height="10" fill="#FFE600"/>
<rect x="185" y="61" width="10" height="10" fill="#FFE600"/>
<rect x="195" y="71" width="10" height="10" fill="#FFE600"/>
<rect x="205" y="61" width="10" height="10" fill="#FFE600"/>
<rect x="197" y="28" width="1" height="1" fill="black"/>
<mask id="mask0_1_9" style="mask-type:alpha" maskUnits="userSpaceOnUse" x="193" y="0" width="35" height="36">
<rect x="193" width="35" height="36" fill="#D9D9D9"/>
</mask>
<g mask="url(#mask0_1_9)">
<path d="M197.458 31.025V28.025H223.708V31.025H197.458ZM200.156 23.525L196 16.25L198.26 15.8L200.812 18.125L207.812 16.175L201.906 5.9L204.75 5L214.74 14.225L222.031 12.2C222.809 11.975 223.514 12.125 224.146 12.65C224.778 13.175 225.094 13.875 225.094 14.75C225.094 15.3 224.93 15.7875 224.602 16.2125C224.273 16.6375 223.854 16.925 223.344 17.075L200.156 23.525Z" fill="#FFE600"/>
</g>
</g>
<defs>
<clipPath id="clip0_1_9">
<rect width="228" height="81" fill="white"/>
</clipPath>
</defs>
</svg>
